<?xml version="1.0" encoding="UTF-8" standalone="no"?>
<!DOCTYPE svg PUBLIC "-//W3C//DTD SVG 1.1//EN"
 "http://www.w3.org/Graphics/SVG/1.1/DTD/svg11.dtd">
<!-- Generated by graphviz version 2.44.0 (20200408.0750)
 -->
<!-- Title: G Pages: 1 -->
<svg width="449pt" height="292pt"
 viewBox="0.00 0.00 449.00 292.00" xmlns="http://www.w3.org/2000/svg" xmlns:xlink="http://www.w3.org/1999/xlink">
<g id="graph0" class="graph" transform="scale(1 1) rotate(0) translate(4 288)">
<title>G</title>
<polygon fill="white" stroke="transparent" points="-4,4 -4,-288 445,-288 445,4 -4,4"/>
<g id="clust1" class="cluster">
<title>cluster_1</title>
<polygon fill="none" stroke="black" stroke-dasharray="5,2" points="8,-224 8,-276 433,-276 433,-224 8,-224"/>
</g>
<g id="clust2" class="cluster">
<title>cluster_2</title>
<polygon fill="none" stroke="black" stroke-dasharray="5,2" points="45,-152 45,-204 297,-204 297,-152 45,-152"/>
</g>
<g id="clust3" class="cluster">
<title>cluster_3</title>
<polygon fill="none" stroke="black" stroke-dasharray="5,2" points="126,-80 126,-132 214,-132 214,-80 126,-80"/>
</g>
<g id="clust4" class="cluster">
<title>cluster_4</title>
<polygon fill="none" stroke="black" stroke-dasharray="5,2" points="135,-8 135,-60 205,-60 205,-8 135,-8"/>
</g>
<!-- cli -->
<g id="node1" class="node">
<title>cli</title>
<polygon fill="lightgrey" stroke="black" points="425,-268 371,-268 371,-232 425,-232 425,-268"/>
<text text-anchor="middle" x="398" y="-246.3" font-family="Times,serif" font-size="14.00">CLI</text>
</g>
<!-- command -->
<g id="node6" class="node">
<title>command</title>
<polygon fill="lightgrey" stroke="black" points="289,-196 215,-196 215,-160 289,-160 289,-196"/>
<text text-anchor="middle" x="252" y="-174.3" font-family="Times,serif" font-size="14.00">Command</text>
</g>
<!-- cli&#45;&gt;command -->
<g id="edge1" class="edge">
<title>cli&#45;&gt;command</title>
<path fill="none" stroke="black" d="M374.85,-231.83C370.67,-229.05 366.28,-226.32 362,-224 341.9,-213.08 318.58,-203.18 298.6,-195.46"/>
<polygon fill="black" stroke="black" points="299.68,-192.13 289.09,-191.86 297.2,-198.67 299.68,-192.13"/>
</g>
<!-- cron -->
<g id="node2" class="node">
<title>cron</title>
<polygon fill="lightgrey" stroke="black" points="353,-268 299,-268 299,-232 353,-232 353,-268"/>
<text text-anchor="middle" x="326" y="-246.3" font-family="Times,serif" font-size="14.00">Cron</text>
</g>
<!-- cron&#45;&gt;command -->
<g id="edge2" class="edge">
<title>cron&#45;&gt;command</title>
<path fill="none" stroke="black" d="M307.71,-231.7C298.57,-223.05 287.36,-212.45 277.4,-203.03"/>
<polygon fill="black" stroke="black" points="279.75,-200.43 270.08,-196.1 274.94,-205.52 279.75,-200.43"/>
</g>
<!-- restful -->
<g id="node3" class="node">
<title>restful</title>
<polygon fill="lightgrey" stroke="black" points="204.5,-268 115.5,-268 115.5,-232 204.5,-232 204.5,-268"/>
<text text-anchor="middle" x="160" y="-246.3" font-family="Times,serif" font-size="14.00">REST Server</text>
</g>
<!-- route -->
<g id="node7" class="node">
<title>route</title>
<polygon fill="lightgrey" stroke="black" points="197,-196 143,-196 143,-160 197,-160 197,-196"/>
<text text-anchor="middle" x="170" y="-174.3" font-family="Times,serif" font-size="14.00">Route</text>
</g>
<!-- restful&#45;&gt;route -->
<g id="edge3" class="edge">
<title>restful&#45;&gt;route</title>
<path fill="none" stroke="black" d="M162.47,-231.7C163.57,-223.98 164.9,-214.71 166.13,-206.11"/>
<polygon fill="black" stroke="black" points="169.61,-206.5 167.56,-196.1 162.68,-205.51 169.61,-206.5"/>
</g>
<!-- jsonrpc -->
<g id="node4" class="node">
<title>jsonrpc</title>
<polygon fill="lightgrey" stroke="black" points="97.5,-268 16.5,-268 16.5,-232 97.5,-232 97.5,-268"/>
<text text-anchor="middle" x="57" y="-246.3" font-family="Times,serif" font-size="14.00">RPC Server</text>
</g>
<!-- proc -->
<g id="node8" class="node">
<title>proc</title>
<polygon fill="lightgrey" stroke="black" points="124.5,-196 53.5,-196 53.5,-160 124.5,-160 124.5,-196"/>
<text text-anchor="middle" x="89" y="-174.3" font-family="Times,serif" font-size="14.00">Procedure</text>
</g>
<!-- jsonrpc&#45;&gt;proc -->
<g id="edge4" class="edge">
<title>jsonrpc&#45;&gt;proc</title>
<path fill="none" stroke="black" d="M64.91,-231.7C68.55,-223.73 72.95,-214.1 76.99,-205.26"/>
<polygon fill="black" stroke="black" points="80.21,-206.65 81.18,-196.1 73.84,-203.74 80.21,-206.65"/>
</g>
<!-- worker -->
<g id="node5" class="node">
<title>worker</title>
<polygon fill="lightgrey" stroke="black" points="281,-268 223,-268 223,-232 281,-232 281,-268"/>
<text text-anchor="middle" x="252" y="-246.3" font-family="Times,serif" font-size="14.00">Worker</text>
</g>
<!-- worker&#45;&gt;command -->
<g id="edge5" class="edge">
<title>worker&#45;&gt;command</title>
<path fill="none" stroke="black" d="M252,-231.7C252,-223.98 252,-214.71 252,-206.11"/>
<polygon fill="black" stroke="black" points="255.5,-206.1 252,-196.1 248.5,-206.1 255.5,-206.1"/>
</g>
<!-- controller -->
<g id="node9" class="node">
<title>controller</title>
<polygon fill="lightgrey" stroke="black" points="206,-124 134,-124 134,-88 206,-88 206,-124"/>
<text text-anchor="middle" x="170" y="-102.3" font-family="Times,serif" font-size="14.00">Controller</text>
</g>
<!-- command&#45;&gt;controller -->
<g id="edge8" class="edge">
<title>command&#45;&gt;controller</title>
<path fill="none" stroke="black" d="M231.73,-159.7C221.5,-150.97 208.94,-140.24 197.82,-130.75"/>
<polygon fill="black" stroke="black" points="199.91,-127.94 190.04,-124.1 195.37,-133.26 199.91,-127.94"/>
</g>
<!-- route&#45;&gt;controller -->
<g id="edge7" class="edge">
<title>route&#45;&gt;controller</title>
<path fill="none" stroke="black" d="M170,-159.7C170,-151.98 170,-142.71 170,-134.11"/>
<polygon fill="black" stroke="black" points="173.5,-134.1 170,-124.1 166.5,-134.1 173.5,-134.1"/>
</g>
<!-- proc&#45;&gt;controller -->
<g id="edge6" class="edge">
<title>proc&#45;&gt;controller</title>
<path fill="none" stroke="black" d="M109.02,-159.7C119.13,-150.97 131.54,-140.24 142.52,-130.75"/>
<polygon fill="black" stroke="black" points="144.93,-133.29 150.21,-124.1 140.35,-127.99 144.93,-133.29"/>
</g>
<!-- model -->
<g id="node10" class="node">
<title>model</title>
<polygon fill="lightgrey" stroke="black" points="197,-52 143,-52 143,-16 197,-16 197,-52"/>
<text text-anchor="middle" x="170" y="-30.3" font-family="Times,serif" font-size="14.00">Model</text>
</g>
<!-- controller&#45;&gt;model -->
<g id="edge9" class="edge">
<title>controller&#45;&gt;model</title>
<path fill="none" stroke="black" d="M170,-87.7C170,-79.98 170,-70.71 170,-62.11"/>
<polygon fill="black" stroke="black" points="173.5,-62.1 170,-52.1 166.5,-62.1 173.5,-62.1"/>
</g>
</g>
</svg>
