<?xml version="1.0" encoding="UTF-8" standalone="no"?>
<!DOCTYPE svg PUBLIC "-//W3C//DTD SVG 1.1//EN"
 "http://www.w3.org/Graphics/SVG/1.1/DTD/svg11.dtd">
<!-- Generated by graphviz version 2.44.0 (20200408.0750)
 -->
<!-- Title: G Pages: 1 -->
<svg width="490pt" height="292pt"
 viewBox="0.00 0.00 490.00 292.00" xmlns="http://www.w3.org/2000/svg" xmlns:xlink="http://www.w3.org/1999/xlink">
<g id="graph0" class="graph" transform="scale(1 1) rotate(0) translate(4 288)">
<title>G</title>
<polygon fill="white" stroke="transparent" points="-4,4 -4,-288 486,-288 486,4 -4,4"/>
<g id="clust1" class="cluster">
<title>cluster_1</title>
<polygon fill="none" stroke="black" stroke-dasharray="5,2" points="8,-224 8,-276 474,-276 474,-224 8,-224"/>
</g>
<g id="clust2" class="cluster">
<title>cluster_2</title>
<polygon fill="none" stroke="black" stroke-dasharray="5,2" points="65,-152 65,-204 317,-204 317,-152 65,-152"/>
</g>
<g id="clust3" class="cluster">
<title>cluster_3</title>
<polygon fill="none" stroke="black" stroke-dasharray="5,2" points="146,-80 146,-132 234,-132 234,-80 146,-80"/>
</g>
<g id="clust4" class="cluster">
<title>cluster_4</title>
<polygon fill="none" stroke="black" stroke-dasharray="5,2" points="155,-8 155,-60 225,-60 225,-8 155,-8"/>
</g>
<!-- cli -->
<g id="node1" class="node">
<title>cli</title>
<polygon fill="lightgrey" stroke="black" points="466,-268 412,-268 412,-232 466,-232 466,-268"/>
<text text-anchor="middle" x="439" y="-246.3" font-family="Times,serif" font-size="14.00">CLI</text>
</g>
<!-- command -->
<g id="node6" class="node">
<title>command</title>
<polygon fill="lightgrey" stroke="black" points="309,-196 235,-196 235,-160 309,-160 309,-196"/>
<text text-anchor="middle" x="272" y="-174.3" font-family="Times,serif" font-size="14.00">Command</text>
</g>
<!-- cli&#45;&gt;command -->
<g id="edge1" class="edge">
<title>cli&#45;&gt;command</title>
<path fill="none" stroke="black" d="M416.35,-231.88C412.04,-229.03 407.48,-226.27 403,-224 376.3,-210.47 344.59,-199.46 319.06,-191.72"/>
<polygon fill="black" stroke="black" points="319.83,-188.29 309.24,-188.81 317.84,-195 319.83,-188.29"/>
</g>
<!-- cron -->
<g id="node2" class="node">
<title>cron</title>
<polygon fill="lightgrey" stroke="black" points="394,-268 340,-268 340,-232 394,-232 394,-268"/>
<text text-anchor="middle" x="367" y="-246.3" font-family="Times,serif" font-size="14.00">Cron</text>
</g>
<!-- cron&#45;&gt;command -->
<g id="edge2" class="edge">
<title>cron&#45;&gt;command</title>
<path fill="none" stroke="black" d="M343.52,-231.7C331.44,-222.8 316.55,-211.82 303.48,-202.2"/>
<polygon fill="black" stroke="black" points="305.34,-199.22 295.21,-196.1 301.19,-204.85 305.34,-199.22"/>
</g>
<!-- restful -->
<g id="node3" class="node">
<title>restful</title>
<polygon fill="lightgrey" stroke="black" points="204.5,-268 115.5,-268 115.5,-232 204.5,-232 204.5,-268"/>
<text text-anchor="middle" x="160" y="-246.3" font-family="Times,serif" font-size="14.00">REST Server</text>
</g>
<!-- route -->
<g id="node7" class="node">
<title>route</title>
<polygon fill="lightgrey" stroke="black" points="217,-196 163,-196 163,-160 217,-160 217,-196"/>
<text text-anchor="middle" x="190" y="-174.3" font-family="Times,serif" font-size="14.00">Route</text>
</g>
<!-- restful&#45;&gt;route -->
<g id="edge3" class="edge">
<title>restful&#45;&gt;route</title>
<path fill="none" stroke="black" d="M167.42,-231.7C170.79,-223.81 174.87,-214.3 178.62,-205.55"/>
<polygon fill="black" stroke="black" points="181.95,-206.67 182.67,-196.1 175.51,-203.92 181.95,-206.67"/>
</g>
<!-- jsonrpc -->
<g id="node4" class="node">
<title>jsonrpc</title>
<polygon fill="lightgrey" stroke="black" points="97.5,-268 16.5,-268 16.5,-232 97.5,-232 97.5,-268"/>
<text text-anchor="middle" x="57" y="-246.3" font-family="Times,serif" font-size="14.00">RPC Server</text>
</g>
<!-- proc -->
<g id="node8" class="node">
<title>proc</title>
<polygon fill="lightgrey" stroke="black" points="144.5,-196 73.5,-196 73.5,-160 144.5,-160 144.5,-196"/>
<text text-anchor="middle" x="109" y="-174.3" font-family="Times,serif" font-size="14.00">Procedure</text>
</g>
<!-- jsonrpc&#45;&gt;proc -->
<g id="edge4" class="edge">
<title>jsonrpc&#45;&gt;proc</title>
<path fill="none" stroke="black" d="M69.85,-231.7C76.03,-223.39 83.54,-213.28 90.32,-204.14"/>
<polygon fill="black" stroke="black" points="93.14,-206.22 96.29,-196.1 87.52,-202.04 93.14,-206.22"/>
</g>
<!-- worker -->
<g id="node5" class="node">
<title>worker</title>
<polygon fill="lightgrey" stroke="black" points="321.5,-268 222.5,-268 222.5,-232 321.5,-232 321.5,-268"/>
<text text-anchor="middle" x="272" y="-246.3" font-family="Times,serif" font-size="14.00">MQ Consumer</text>
</g>
<!-- worker&#45;&gt;command -->
<g id="edge5" class="edge">
<title>worker&#45;&gt;command</title>
<path fill="none" stroke="black" d="M272,-231.7C272,-223.98 272,-214.71 272,-206.11"/>
<polygon fill="black" stroke="black" points="275.5,-206.1 272,-196.1 268.5,-206.1 275.5,-206.1"/>
</g>
<!-- controller -->
<g id="node9" class="node">
<title>controller</title>
<polygon fill="lightgrey" stroke="black" points="226,-124 154,-124 154,-88 226,-88 226,-124"/>
<text text-anchor="middle" x="190" y="-102.3" font-family="Times,serif" font-size="14.00">Controller</text>
</g>
<!-- command&#45;&gt;controller -->
<g id="edge8" class="edge">
<title>command&#45;&gt;controller</title>
<path fill="none" stroke="black" d="M251.73,-159.7C241.5,-150.97 228.94,-140.24 217.82,-130.75"/>
<polygon fill="black" stroke="black" points="219.91,-127.94 210.04,-124.1 215.37,-133.26 219.91,-127.94"/>
</g>
<!-- route&#45;&gt;controller -->
<g id="edge7" class="edge">
<title>route&#45;&gt;controller</title>
<path fill="none" stroke="black" d="M190,-159.7C190,-151.98 190,-142.71 190,-134.11"/>
<polygon fill="black" stroke="black" points="193.5,-134.1 190,-124.1 186.5,-134.1 193.5,-134.1"/>
</g>
<!-- proc&#45;&gt;controller -->
<g id="edge6" class="edge">
<title>proc&#45;&gt;controller</title>
<path fill="none" stroke="black" d="M129.02,-159.7C139.13,-150.97 151.54,-140.24 162.52,-130.75"/>
<polygon fill="black" stroke="black" points="164.93,-133.29 170.21,-124.1 160.35,-127.99 164.93,-133.29"/>
</g>
<!-- model -->
<g id="node10" class="node">
<title>model</title>
<polygon fill="lightgrey" stroke="black" points="217,-52 163,-52 163,-16 217,-16 217,-52"/>
<text text-anchor="middle" x="190" y="-30.3" font-family="Times,serif" font-size="14.00">Model</text>
</g>
<!-- controller&#45;&gt;model -->
<g id="edge9" class="edge">
<title>controller&#45;&gt;model</title>
<path fill="none" stroke="black" d="M190,-87.7C190,-79.98 190,-70.71 190,-62.11"/>
<polygon fill="black" stroke="black" points="193.5,-62.1 190,-52.1 186.5,-62.1 193.5,-62.1"/>
</g>
</g>
</svg>
