<?xml version="1.0" encoding="UTF-8" standalone="no"?>
<!DOCTYPE svg PUBLIC "-//W3C//DTD SVG 1.1//EN"
 "http://www.w3.org/Graphics/SVG/1.1/DTD/svg11.dtd">
<!-- Generated by graphviz version 2.44.0 (20200408.0750)
 -->
<!-- Title: G Pages: 1 -->
<svg width="373pt" height="292pt"
 viewBox="0.00 0.00 373.00 292.00" xmlns="http://www.w3.org/2000/svg" xmlns:xlink="http://www.w3.org/1999/xlink">
<g id="graph0" class="graph" transform="scale(1 1) rotate(0) translate(4 288)">
<title>G</title>
<polygon fill="white" stroke="transparent" points="-4,4 -4,-288 369,-288 369,4 -4,4"/>
<g id="clust1" class="cluster">
<title>cluster_1</title>
<polygon fill="none" stroke="black" stroke-dasharray="5,2" points="8,-224 8,-276 357,-276 357,-224 8,-224"/>
</g>
<g id="clust2" class="cluster">
<title>cluster_2</title>
<polygon fill="none" stroke="black" stroke-dasharray="5,2" points="39,-152 39,-204 291,-204 291,-152 39,-152"/>
</g>
<g id="clust3" class="cluster">
<title>cluster_3</title>
<polygon fill="none" stroke="black" stroke-dasharray="5,2" points="120,-80 120,-132 208,-132 208,-80 120,-80"/>
</g>
<g id="clust4" class="cluster">
<title>cluster_4</title>
<polygon fill="none" stroke="black" stroke-dasharray="5,2" points="129,-8 129,-60 199,-60 199,-8 129,-8"/>
</g>
<!-- cli -->
<g id="node1" class="node">
<title>cli</title>
<polygon fill="lightgrey" stroke="black" points="349,-268 295,-268 295,-232 349,-232 349,-268"/>
<text text-anchor="middle" x="322" y="-246.3" font-family="Times,serif" font-size="14.00">CLI</text>
</g>
<!-- command -->
<g id="node5" class="node">
<title>command</title>
<polygon fill="lightgrey" stroke="black" points="283,-196 209,-196 209,-160 283,-160 283,-196"/>
<text text-anchor="middle" x="246" y="-174.3" font-family="Times,serif" font-size="14.00">Command</text>
</g>
<!-- cli&#45;&gt;command -->
<g id="edge1" class="edge">
<title>cli&#45;&gt;command</title>
<path fill="none" stroke="black" d="M303.21,-231.7C293.83,-223.05 282.32,-212.45 272.09,-203.03"/>
<polygon fill="black" stroke="black" points="274.3,-200.3 264.57,-196.1 269.55,-205.45 274.3,-200.3"/>
</g>
<!-- cron -->
<g id="node2" class="node">
<title>cron</title>
<polygon fill="lightgrey" stroke="black" points="277,-268 223,-268 223,-232 277,-232 277,-268"/>
<text text-anchor="middle" x="250" y="-246.3" font-family="Times,serif" font-size="14.00">Cron</text>
</g>
<!-- cron&#45;&gt;command -->
<g id="edge2" class="edge">
<title>cron&#45;&gt;command</title>
<path fill="none" stroke="black" d="M249.01,-231.7C248.57,-223.98 248.04,-214.71 247.55,-206.11"/>
<polygon fill="black" stroke="black" points="251.04,-205.89 246.98,-196.1 244.05,-206.29 251.04,-205.89"/>
</g>
<!-- restful -->
<g id="node3" class="node">
<title>restful</title>
<polygon fill="lightgrey" stroke="black" points="204.5,-268 115.5,-268 115.5,-232 204.5,-232 204.5,-268"/>
<text text-anchor="middle" x="160" y="-246.3" font-family="Times,serif" font-size="14.00">HTTP Server</text>
</g>
<!-- route -->
<g id="node6" class="node">
<title>route</title>
<polygon fill="lightgrey" stroke="black" points="191,-196 137,-196 137,-160 191,-160 191,-196"/>
<text text-anchor="middle" x="164" y="-174.3" font-family="Times,serif" font-size="14.00">Route</text>
</g>
<!-- restful&#45;&gt;route -->
<g id="edge3" class="edge">
<title>restful&#45;&gt;route</title>
<path fill="none" stroke="black" d="M160.99,-231.7C161.43,-223.98 161.96,-214.71 162.45,-206.11"/>
<polygon fill="black" stroke="black" points="165.95,-206.29 163.02,-196.1 158.96,-205.89 165.95,-206.29"/>
</g>
<!-- jsonrpc -->
<g id="node4" class="node">
<title>jsonrpc</title>
<polygon fill="lightgrey" stroke="black" points="97.5,-268 16.5,-268 16.5,-232 97.5,-232 97.5,-268"/>
<text text-anchor="middle" x="57" y="-246.3" font-family="Times,serif" font-size="14.00">RPC Server</text>
</g>
<!-- proc -->
<g id="node7" class="node">
<title>proc</title>
<polygon fill="lightgrey" stroke="black" points="118.5,-196 47.5,-196 47.5,-160 118.5,-160 118.5,-196"/>
<text text-anchor="middle" x="83" y="-174.3" font-family="Times,serif" font-size="14.00">Procedure</text>
</g>
<!-- jsonrpc&#45;&gt;proc -->
<g id="edge4" class="edge">
<title>jsonrpc&#45;&gt;proc</title>
<path fill="none" stroke="black" d="M63.43,-231.7C66.36,-223.81 69.89,-214.3 73.14,-205.55"/>
<polygon fill="black" stroke="black" points="76.45,-206.7 76.65,-196.1 69.88,-204.26 76.45,-206.7"/>
</g>
<!-- controller -->
<g id="node8" class="node">
<title>controller</title>
<polygon fill="lightgrey" stroke="black" points="200,-124 128,-124 128,-88 200,-88 200,-124"/>
<text text-anchor="middle" x="164" y="-102.3" font-family="Times,serif" font-size="14.00">Controller</text>
</g>
<!-- command&#45;&gt;controller -->
<g id="edge7" class="edge">
<title>command&#45;&gt;controller</title>
<path fill="none" stroke="black" d="M225.73,-159.7C215.5,-150.97 202.94,-140.24 191.82,-130.75"/>
<polygon fill="black" stroke="black" points="193.91,-127.94 184.04,-124.1 189.37,-133.26 193.91,-127.94"/>
</g>
<!-- route&#45;&gt;controller -->
<g id="edge6" class="edge">
<title>route&#45;&gt;controller</title>
<path fill="none" stroke="black" d="M164,-159.7C164,-151.98 164,-142.71 164,-134.11"/>
<polygon fill="black" stroke="black" points="167.5,-134.1 164,-124.1 160.5,-134.1 167.5,-134.1"/>
</g>
<!-- proc&#45;&gt;controller -->
<g id="edge5" class="edge">
<title>proc&#45;&gt;controller</title>
<path fill="none" stroke="black" d="M103.02,-159.7C113.13,-150.97 125.54,-140.24 136.52,-130.75"/>
<polygon fill="black" stroke="black" points="138.93,-133.29 144.21,-124.1 134.35,-127.99 138.93,-133.29"/>
</g>
<!-- model -->
<g id="node9" class="node">
<title>model</title>
<polygon fill="lightgrey" stroke="black" points="191,-52 137,-52 137,-16 191,-16 191,-52"/>
<text text-anchor="middle" x="164" y="-30.3" font-family="Times,serif" font-size="14.00">Model</text>
</g>
<!-- controller&#45;&gt;model -->
<g id="edge8" class="edge">
<title>controller&#45;&gt;model</title>
<path fill="none" stroke="black" d="M164,-87.7C164,-79.98 164,-70.71 164,-62.11"/>
<polygon fill="black" stroke="black" points="167.5,-62.1 164,-52.1 160.5,-62.1 167.5,-62.1"/>
</g>
</g>
</svg>
