<?xml version="1.0" encoding="UTF-8" standalone="no"?>
<!DOCTYPE svg PUBLIC "-//W3C//DTD SVG 1.1//EN"
 "http://www.w3.org/Graphics/SVG/1.1/DTD/svg11.dtd">
<!-- Generated by graphviz version 2.43.0 (0)
 -->
<!-- Title: G Pages: 1 -->
<svg width="361pt" height="292pt"
 viewBox="0.00 0.00 361.00 292.00" xmlns="http://www.w3.org/2000/svg" xmlns:xlink="http://www.w3.org/1999/xlink">
<g id="graph0" class="graph" transform="scale(1 1) rotate(0) translate(4 288)">
<title>G</title>
<polygon fill="white" stroke="transparent" points="-4,4 -4,-288 357,-288 357,4 -4,4"/>
<g id="clust1" class="cluster">
<title>cluster_1</title>
<polygon fill="none" stroke="black" stroke-dasharray="5,2" points="8,-224 8,-276 345,-276 345,-224 8,-224"/>
</g>
<g id="clust2" class="cluster">
<title>cluster_2</title>
<polygon fill="none" stroke="black" stroke-dasharray="5,2" points="26,-152 26,-204 278,-204 278,-152 26,-152"/>
</g>
<g id="clust3" class="cluster">
<title>cluster_3</title>
<polygon fill="none" stroke="black" stroke-dasharray="5,2" points="106,-80 106,-132 196,-132 196,-80 106,-80"/>
</g>
<g id="clust4" class="cluster">
<title>cluster_4</title>
<polygon fill="none" stroke="black" stroke-dasharray="5,2" points="116,-8 116,-60 186,-60 186,-8 116,-8"/>
</g>
<!-- cli -->
<g id="node1" class="node">
<title>cli</title>
<polygon fill="lightgrey" stroke="black" points="337,-268 283,-268 283,-232 337,-232 337,-268"/>
<text text-anchor="middle" x="310" y="-245.8" font-family="Times,serif" font-size="14.00">CLI</text>
</g>
<!-- command -->
<g id="node5" class="node">
<title>command</title>
<polygon fill="lightgrey" stroke="black" points="270.33,-196 195.67,-196 195.67,-160 270.33,-160 270.33,-196"/>
<text text-anchor="middle" x="233" y="-173.8" font-family="Times,serif" font-size="14.00">Command</text>
</g>
<!-- cli&#45;&gt;command -->
<g id="edge1" class="edge">
<title>cli&#45;&gt;command</title>
<path fill="none" stroke="black" d="M290.97,-231.7C281.46,-223.05 269.79,-212.45 259.43,-203.03"/>
<polygon fill="black" stroke="black" points="261.57,-200.24 251.81,-196.1 256.86,-205.42 261.57,-200.24"/>
</g>
<!-- cron -->
<g id="node2" class="node">
<title>cron</title>
<polygon fill="lightgrey" stroke="black" points="265,-268 211,-268 211,-232 265,-232 265,-268"/>
<text text-anchor="middle" x="238" y="-245.8" font-family="Times,serif" font-size="14.00">Cron</text>
</g>
<!-- cron&#45;&gt;command -->
<g id="edge2" class="edge">
<title>cron&#45;&gt;command</title>
<path fill="none" stroke="black" d="M236.76,-231.7C236.21,-223.98 235.55,-214.71 234.94,-206.11"/>
<polygon fill="black" stroke="black" points="238.43,-205.83 234.22,-196.1 231.44,-206.33 238.43,-205.83"/>
</g>
<!-- restful -->
<g id="node3" class="node">
<title>restful</title>
<polygon fill="lightgrey" stroke="black" points="192.57,-268 101.43,-268 101.43,-232 192.57,-232 192.57,-268"/>
<text text-anchor="middle" x="147" y="-245.8" font-family="Times,serif" font-size="14.00">RESTful API</text>
</g>
<!-- route -->
<g id="node6" class="node">
<title>route</title>
<polygon fill="lightgrey" stroke="black" points="178,-196 124,-196 124,-160 178,-160 178,-196"/>
<text text-anchor="middle" x="151" y="-173.8" font-family="Times,serif" font-size="14.00">Route</text>
</g>
<!-- restful&#45;&gt;route -->
<g id="edge3" class="edge">
<title>restful&#45;&gt;route</title>
<path fill="none" stroke="black" d="M147.99,-231.7C148.43,-223.98 148.96,-214.71 149.45,-206.11"/>
<polygon fill="black" stroke="black" points="152.95,-206.29 150.02,-196.1 145.96,-205.89 152.95,-206.29"/>
</g>
<!-- jsonrpc -->
<g id="node4" class="node">
<title>jsonrpc</title>
<polygon fill="lightgrey" stroke="black" points="83.76,-268 16.24,-268 16.24,-232 83.76,-232 83.76,-268"/>
<text text-anchor="middle" x="50" y="-245.8" font-family="Times,serif" font-size="14.00">RPC API</text>
</g>
<!-- proc -->
<g id="node7" class="node">
<title>proc</title>
<polygon fill="lightgrey" stroke="black" points="106.25,-196 33.75,-196 33.75,-160 106.25,-160 106.25,-196"/>
<text text-anchor="middle" x="70" y="-173.8" font-family="Times,serif" font-size="14.00">Procedure</text>
</g>
<!-- jsonrpc&#45;&gt;proc -->
<g id="edge4" class="edge">
<title>jsonrpc&#45;&gt;proc</title>
<path fill="none" stroke="black" d="M54.94,-231.7C57.17,-223.9 59.85,-214.51 62.33,-205.83"/>
<polygon fill="black" stroke="black" points="65.73,-206.68 65.11,-196.1 59,-204.76 65.73,-206.68"/>
</g>
<!-- controller -->
<g id="node8" class="node">
<title>controller</title>
<polygon fill="lightgrey" stroke="black" points="187.55,-124 114.45,-124 114.45,-88 187.55,-88 187.55,-124"/>
<text text-anchor="middle" x="151" y="-101.8" font-family="Times,serif" font-size="14.00">Controller</text>
</g>
<!-- command&#45;&gt;controller -->
<g id="edge7" class="edge">
<title>command&#45;&gt;controller</title>
<path fill="none" stroke="black" d="M212.73,-159.7C202.5,-150.97 189.94,-140.24 178.82,-130.75"/>
<polygon fill="black" stroke="black" points="180.91,-127.94 171.04,-124.1 176.37,-133.26 180.91,-127.94"/>
</g>
<!-- route&#45;&gt;controller -->
<g id="edge6" class="edge">
<title>route&#45;&gt;controller</title>
<path fill="none" stroke="black" d="M151,-159.7C151,-151.98 151,-142.71 151,-134.11"/>
<polygon fill="black" stroke="black" points="154.5,-134.1 151,-124.1 147.5,-134.1 154.5,-134.1"/>
</g>
<!-- proc&#45;&gt;controller -->
<g id="edge5" class="edge">
<title>proc&#45;&gt;controller</title>
<path fill="none" stroke="black" d="M90.02,-159.7C100.13,-150.97 112.54,-140.24 123.52,-130.75"/>
<polygon fill="black" stroke="black" points="125.93,-133.29 131.21,-124.1 121.35,-127.99 125.93,-133.29"/>
</g>
<!-- model -->
<g id="node9" class="node">
<title>model</title>
<polygon fill="lightgrey" stroke="black" points="178,-52 124,-52 124,-16 178,-16 178,-52"/>
<text text-anchor="middle" x="151" y="-29.8" font-family="Times,serif" font-size="14.00">Model</text>
</g>
<!-- controller&#45;&gt;model -->
<g id="edge8" class="edge">
<title>controller&#45;&gt;model</title>
<path fill="none" stroke="black" d="M151,-87.7C151,-79.98 151,-70.71 151,-62.11"/>
<polygon fill="black" stroke="black" points="154.5,-62.1 151,-52.1 147.5,-62.1 154.5,-62.1"/>
</g>
</g>
</svg>
